<svg xmlns="http://www.w3.org/2000/svg" xmlns:xlink="http://www.w3.org/1999/xlink" width="20pt" height="20pt" viewBox="0 0 20 20" version="1.1"><g>
<path  d="M 8.503906 2.613281 L 9.496094 1.746094 C 9.914062 1.378906 10.59375 1.378906 11.007812 1.746094 L 19.6875 9.335938 C 20.105469 9.703125 20.105469 10.296875 19.6875 10.660156 L 11.007812 18.253906 C 10.589844 18.621094 9.910156 18.621094 9.496094 18.253906 L 8.503906 17.386719 C 8.082031 17.015625 8.089844 16.410156 8.523438 16.046875 L 13.902344 11.5625 L 1.070312 11.5625 C 0.476562 11.5625 0 11.144531 0 10.625 L 0 9.375 C 0 8.855469 0.476562 8.4375 1.070312 8.4375 L 13.902344 8.4375 L 8.523438 3.953125 C 8.085938 3.589844 8.074219 2.984375 8.503906 2.613281 Z M 8.503906 2.613281 "/></g></svg>
