<svg xmlns="http://www.w3.org/2000/svg" xmlns:xlink="http://www.w3.org/1999/xlink" width="20pt" height="20pt" viewBox="0 0 20 20" version="1.1"><g><path d="M 11.496094 17.386719 L 10.503906 18.253906 C 10.085938 18.621094 9.40625 18.621094 8.992188 18.253906 L 0.3125 10.664062 C -0.105469 10.296875 -0.105469 9.703125 0.3125 9.339844 L 8.992188 1.746094 C 9.410156 1.378906 10.089844 1.378906 10.503906 1.746094 L 11.496094 2.613281 C 11.917969 2.984375 11.910156 3.589844 11.476562 3.953125 L 6.097656 8.4375 L 18.929688 8.4375 C 19.523438 8.4375 20 8.855469 20 9.375 L 20 10.625 C 20 11.144531 19.523438 11.5625 18.929688 11.5625 L 6.097656 11.5625 L 11.476562 16.046875 C 11.914062 16.410156 11.925781 17.015625 11.496094 17.386719 Z M 11.496094 17.386719 "/></g></svg>
