<svg xmlns="http://www.w3.org/2000/svg" xmlns:xlink="http://www.w3.org/1999/xlink" width="16pt" height="16pt" viewBox="0 0 16 16" version="1.1">
<g>
<path d="M 8.003906 4.40625 C 5.730469 4.40625 3.898438 6.007812 3.898438 7.996094 C 3.898438 9.984375 5.730469 11.585938 8.003906 11.585938 C 10.273438 11.585938 12.105469 9.984375 12.105469 7.996094 C 12.105469 6.007812 10.273438 4.40625 8.003906 4.40625 Z M 8.003906 10.332031 C 6.535156 10.332031 5.335938 9.285156 5.335938 7.996094 C 5.335938 6.710938 6.53125 5.664062 8.003906 5.664062 C 9.476562 5.664062 10.671875 6.710938 10.671875 7.996094 C 10.671875 9.285156 9.472656 10.332031 8.003906 10.332031 Z M 13.230469 4.257812 C 13.230469 4.726562 12.804688 5.097656 12.273438 5.097656 C 11.742188 5.097656 11.316406 4.722656 11.316406 4.257812 C 11.316406 3.796875 11.746094 3.421875 12.273438 3.421875 C 12.804688 3.421875 13.230469 3.796875 13.230469 4.257812 Z M 15.949219 5.109375 C 15.890625 3.988281 15.597656 2.992188 14.65625 2.175781 C 13.722656 1.355469 12.585938 1.101562 11.304688 1.042969 C 9.980469 0.976562 6.019531 0.976562 4.699219 1.042969 C 3.421875 1.097656 2.285156 1.351562 1.347656 2.171875 C 0.40625 2.992188 0.117188 3.984375 0.0546875 5.105469 C -0.0195312 6.261719 -0.0195312 9.726562 0.0546875 10.882812 C 0.113281 12.007812 0.40625 13 1.347656 13.820312 C 2.285156 14.636719 3.417969 14.894531 4.699219 14.949219 C 6.019531 15.015625 9.980469 15.015625 11.304688 14.949219 C 12.585938 14.898438 13.722656 14.640625 14.65625 13.820312 C 15.59375 13 15.886719 12.007812 15.949219 10.882812 C 16.023438 9.726562 16.023438 6.265625 15.949219 5.109375 Z M 14.242188 12.125 C 13.964844 12.738281 13.425781 13.210938 12.722656 13.457031 C 11.667969 13.820312 9.167969 13.738281 8.003906 13.738281 C 6.839844 13.738281 4.335938 13.820312 3.285156 13.457031 C 2.585938 13.210938 2.046875 12.742188 1.765625 12.125 C 1.347656 11.203125 1.441406 9.015625 1.441406 7.996094 C 1.441406 6.976562 1.351562 4.789062 1.765625 3.867188 C 2.042969 3.257812 2.582031 2.785156 3.285156 2.539062 C 4.339844 2.171875 6.839844 2.257812 8.003906 2.257812 C 9.167969 2.257812 11.671875 2.175781 12.722656 2.539062 C 13.421875 2.78125 13.960938 3.253906 14.242188 3.867188 C 14.660156 4.789062 14.5625 6.976562 14.5625 7.996094 C 14.5625 9.015625 14.660156 11.207031 14.242188 12.125 Z M 14.242188 12.125 "/>
</g>
</svg>
