<svg xmlns="http://www.w3.org/2000/svg" xmlns:xlink="http://www.w3.org/1999/xlink" width="105pt" height="105pt" viewBox="0 0 105 105" version="1.1">
<g>
<path style=" stroke:none;fill-rule:nonzero;fill:#80c721;fill-opacity:1;" d="M 31.5 52.5 C 41.65625 52.5 49.875 42.226562 49.875 29.53125 C 49.875 16.835938 41.65625 6.5625 31.5 6.5625 C 21.34375 6.5625 13.125 16.835938 13.125 29.53125 C 13.125 42.226562 21.34375 52.5 31.5 52.5 Z M 44.101562 59.0625 L 42.738281 59.0625 C 39.324219 61.113281 35.535156 62.34375 31.5 62.34375 C 27.464844 62.34375 23.691406 61.113281 20.261719 59.0625 L 18.898438 59.0625 C 8.464844 59.0625 0 69.644531 0 82.6875 L 0 88.59375 C 0 94.027344 3.527344 98.4375 7.875 98.4375 L 55.125 98.4375 C 59.472656 98.4375 63 94.027344 63 88.59375 L 63 82.6875 C 63 69.644531 54.535156 59.0625 44.101562 59.0625 Z M 78.75 52.5 C 87.445312 52.5 94.5 43.679688 94.5 32.8125 C 94.5 21.945312 87.445312 13.125 78.75 13.125 C 70.054688 13.125 63 21.945312 63 32.8125 C 63 43.679688 70.054688 52.5 78.75 52.5 Z M 86.625 59.0625 L 86 59.0625 C 83.722656 60.046875 81.308594 60.703125 78.75 60.703125 C 76.191406 60.703125 73.777344 60.046875 71.5 59.0625 L 70.875 59.0625 C 67.527344 59.0625 64.445312 60.273438 61.738281 62.21875 C 65.738281 67.613281 68.25 74.773438 68.25 82.6875 L 68.25 90.5625 C 68.25 91.011719 68.167969 91.445312 68.152344 91.875 L 97.125 91.875 C 101.472656 91.875 105 87.464844 105 82.03125 C 105 69.335938 96.78125 59.0625 86.625 59.0625 Z M 86.625 59.0625 "/>
</g>
</svg>
