<svg xmlns="http://www.w3.org/2000/svg" xmlns:xlink="http://www.w3.org/1999/xlink" width="16pt" height="16pt" viewBox="0 0 16 16" version="1.1">
<g>
<path style=" stroke:none;fill-rule:nonzero;fill:#80C721;fill-opacity:1;" d="M 15.542969 11.304688 L 12.042969 9.804688 C 11.734375 9.675781 11.378906 9.761719 11.167969 10.023438 L 9.617188 11.914062 C 7.1875 10.769531 5.226562 8.8125 4.082031 6.378906 L 5.976562 4.828125 C 6.234375 4.617188 6.320312 4.261719 6.191406 3.953125 L 4.691406 0.453125 C 4.546875 0.121094 4.183594 -0.0625 3.832031 0.0195312 L 0.582031 0.769531 C 0.242188 0.847656 0 1.152344 0 1.5 C 0 9.515625 6.496094 16 14.5 16 C 14.847656 16 15.152344 15.757812 15.230469 15.417969 L 15.980469 12.167969 C 16.0625 11.8125 15.878906 11.453125 15.542969 11.304688 Z M 15.542969 11.304688 "/>
</g>
</svg>
