<svg xmlns="http://www.w3.org/2000/svg" xmlns:xlink="http://www.w3.org/1999/xlink" width="105pt" height="105pt" viewBox="0 0 105 105" version="1.1">
<g>
<path style=" stroke:none;fill-rule:nonzero;fill:#80c721;fill-opacity:1;" d="M 102.765625 81.148438 L 78.75 57.136719 C 74.011719 52.398438 66.9375 51.476562 61.238281 54.285156 L 39.375 32.421875 L 39.375 19.6875 L 13.125 0 L 0 13.125 L 19.6875 39.375 L 32.421875 39.375 L 54.285156 61.238281 C 51.496094 66.9375 52.398438 74.011719 57.132812 78.75 L 81.148438 102.765625 C 84.144531 105.757812 88.984375 105.757812 91.957031 102.765625 L 102.765625 91.957031 C 105.738281 88.960938 105.738281 84.125 102.765625 81.148438 Z M 68.023438 46.140625 C 73.828125 46.140625 79.28125 48.398438 83.382812 52.5 L 87.363281 56.476562 C 90.601562 55.0625 93.679688 53.09375 96.34375 50.429688 C 103.953125 42.820312 106.539062 32.113281 104.117188 22.394531 C 103.667969 20.546875 101.351562 19.914062 99.996094 21.265625 L 84.738281 36.523438 L 70.8125 34.207031 L 68.496094 20.28125 L 83.753906 5.023438 C 85.109375 3.671875 84.449219 1.355469 82.585938 0.882812 C 72.863281 -1.515625 62.160156 1.066406 54.570312 8.65625 C 48.726562 14.5 45.976562 22.210938 46.121094 29.902344 L 62.960938 46.738281 C 64.621094 46.347656 66.34375 46.140625 68.023438 46.140625 Z M 46.71875 62.960938 L 35.089844 51.332031 L 3.835938 82.605469 C -1.292969 87.734375 -1.292969 96.039062 3.835938 101.164062 C 8.960938 106.292969 17.265625 106.292969 22.394531 101.164062 L 47.742188 75.816406 C 46.183594 71.738281 45.710938 67.285156 46.71875 62.960938 Z M 13.125 96.796875 C 10.417969 96.796875 8.203125 94.582031 8.203125 91.875 C 8.203125 89.148438 10.398438 86.953125 13.125 86.953125 C 15.851562 86.953125 18.046875 89.148438 18.046875 91.875 C 18.046875 94.582031 15.851562 96.796875 13.125 96.796875 Z M 13.125 96.796875 "/>
</g>
</svg>
