<svg xmlns="http://www.w3.org/2000/svg" xmlns:xlink="http://www.w3.org/1999/xlink" width="105pt" height="105pt" viewBox="0 0 105 105" version="1.1">
<g>
<path style=" stroke:none;fill-rule:nonzero;fill:#80c721;fill-opacity:1;" d="M 82.6875 72.1875 L 22.378906 72.1875 C 21.65625 72.1875 21.066406 72.925781 21.066406 73.828125 L 21.050781 83.671875 C 21.050781 84.574219 21.640625 85.3125 22.363281 85.3125 L 82.6875 85.3125 C 83.410156 85.3125 84 84.574219 84 83.671875 L 84 73.828125 C 84 72.925781 83.410156 72.1875 82.6875 72.1875 Z M 82.6875 91.875 L 22.328125 91.875 C 21.605469 91.875 21.015625 92.613281 21.015625 93.515625 L 21 103.359375 C 21 104.261719 21.589844 105 22.3125 105 L 82.6875 105 C 83.410156 105 84 104.261719 84 103.359375 L 84 93.515625 C 84 92.613281 83.410156 91.875 82.6875 91.875 Z M 82.6875 52.5 L 22.410156 52.5 C 21.6875 52.5 21.097656 53.238281 21.097656 54.140625 L 21.082031 63.984375 C 21.082031 64.886719 21.671875 65.625 22.394531 65.625 L 82.6875 65.625 C 83.410156 65.625 84 64.886719 84 63.984375 L 84 54.140625 C 84 53.238281 83.410156 52.5 82.6875 52.5 Z M 100.160156 23.992188 L 55.519531 0.757812 C 53.582031 -0.246094 51.402344 -0.246094 49.464844 0.757812 L 4.839844 23.992188 C 1.917969 25.53125 0 29.101562 0 33.078125 L 0 103.359375 C 0 104.261719 0.589844 105 1.3125 105 L 14.4375 105 C 15.160156 105 15.75 104.261719 15.75 103.359375 L 15.75 52.5 C 15.75 48.890625 18.144531 45.9375 21.097656 45.9375 L 83.902344 45.9375 C 86.855469 45.9375 89.25 48.890625 89.25 52.5 L 89.25 103.359375 C 89.25 104.261719 89.839844 105 90.5625 105 L 103.6875 105 C 104.410156 105 105 104.261719 105 103.359375 L 105 33.078125 C 105 29.101562 103.082031 25.53125 100.160156 23.996094 Z M 100.160156 23.992188 "/>
</g>
</svg>
